<svg width="128" height="128" viewBox="0 0 128 128" fill="none" xmlns="http://www.w3.org/2000/svg">
<rect width="128" height="128" rx="64" fill="black"/>
<path d="M87.8 87.9657C87.8 89.0662 87.4184 90.1213 86.7391 90.8993C86.0598 91.6773 85.1383 92.1143 84.1776 92.1143H40.7093C39.7486 92.1143 38.8272 91.6773 38.1479 90.8993C37.4686 90.1213 37.087 89.0662 37.087 87.9657V34.0343C37.087 33.4895 37.1807 32.95 37.3627 32.4467C37.5447 31.9434 37.8115 31.486 38.1479 31.1008C38.8272 30.3228 39.7486 29.8857 40.7093 29.8857H76.9329C77.8779 29.8866 78.7854 30.3104 79.4613 31.0667L86.706 39.0375C87.0523 39.4239 87.3274 39.8858 87.5153 40.396C87.7032 40.9061 87.8 41.4542 87.8 42.0079V87.9657Z" fill="white"/>
<path d="M45 85.5555H79.087" stroke="#DDDDDD" stroke-width="2.5" stroke-linecap="round" stroke-linejoin="round"/>
<path d="M45 79.4445L79.087 79.4445" stroke="#EEEEEE" stroke-width="2.5" stroke-linecap="round" stroke-linejoin="round"/>
<path d="M45 74.5555L79.087 74.5555" stroke="#EEEEEE" stroke-width="2.5" stroke-linecap="round" stroke-linejoin="round"/>
<path d="M45 69.6667L79.087 69.6667" stroke="#EEEEEE" stroke-width="2.5" stroke-linecap="round" stroke-linejoin="round"/>
<path d="M45 64.7778H79.087" stroke="#DDDDDD" stroke-width="2.5" stroke-linecap="round" stroke-linejoin="round"/>
<path d="M45 59.8889H79.087" stroke="#DDDDDD" stroke-width="2.5" stroke-linecap="round" stroke-linejoin="round"/>
<path d="M45 55H79.087" stroke="#DDDDDD" stroke-width="2.5" stroke-linecap="round" stroke-linejoin="round"/>
<path d="M45 85.5555H64.4783" stroke="#00A29F" stroke-width="2.5" stroke-linecap="round" stroke-linejoin="round"/>
<path d="M51.0869 79.4445H70.5652" stroke="#0081D6" stroke-width="2.5" stroke-linecap="round" stroke-linejoin="round"/>
<path d="M51.0869 74.5555H70.5652" stroke="#0081D6" stroke-width="2.5" stroke-linecap="round" stroke-linejoin="round"/>
<path d="M51.0869 69.6667H70.5652" stroke="#0081D6" stroke-width="2.5" stroke-linecap="round" stroke-linejoin="round"/>
<path d="M45 64.7778H64.4783" stroke="#00A29F" stroke-width="2.5" stroke-linecap="round" stroke-linejoin="round"/>
<path d="M45 59.8889H64.4783" stroke="black" stroke-width="2.5" stroke-linecap="round" stroke-linejoin="round"/>
<path d="M45 55H64.4783" stroke="#D69A00" stroke-width="2.5" stroke-linecap="round" stroke-linejoin="round"/>
<path d="M46 48V44.5385M46 44.5385V39L49.3506 39C49.3506 39 50.9821 39.548 50.9821 42.1154C50.9821 44.1429 49.3506 44.5385 49.3506 44.5385H46ZM54.5658 48V44.1923M57.2462 44.1923C57.2462 44.1923 59.2857 43.9451 59.2857 42.1154C59.2857 40.2857 57.6541 39 57.6541 39L54.5658 39V44.1923M57.2462 44.1923L54.5658 44.1923M57.2462 44.1923L59.4605 48M77 39H73.3289C73.3289 39 71.6974 41.5932 71.6974 43.5C71.6974 45.4068 73.3289 48 73.3289 48H77M63.9474 39H67.2105C67.2105 39 68.8421 41.5932 68.8421 43.5C68.8421 45.4068 67.2105 48 67.2105 48H63.9474C63.9474 48 62.3158 45.4068 62.3158 43.5C62.3158 41.5932 63.9474 39 63.9474 39Z" stroke="#7F7F7F" stroke-width="2" stroke-linecap="round"/>
<g clip-path="url(#clip0_4_103)">
<path d="M88.6548 94.082C84.4765 96.5344 80.1571 96.7213 75.5015 96.3631L76.3527 93.8102C76.3527 87.0755 79.9078 81.1712 85.2437 77.8714C85.4921 77.7177 85.8155 77.7875 85.986 78.0248L87.1345 79.6231C87.332 78.5687 88.2694 76.3602 88.2694 76.3602C90.3801 75.5358 92.6771 75.0833 95.0797 75.0833C95.6879 75.0833 96.2894 75.1123 96.8828 75.169C97.3859 75.2171 97.7824 75.6136 97.8305 76.1167C97.8872 76.7101 97.9162 77.3117 97.9162 77.9199C97.9162 83.187 95.7418 87.9462 92.2416 91.3488C92.2416 91.3488 88.4415 92.1072 86.5671 92.1072L88.6087 93.1222C89.0004 93.3169 89.032 93.8606 88.6548 94.082Z" fill="#FDDC5C"/>
<path fill-rule="evenodd" clip-rule="evenodd" d="M88.0528 75.5058C90.817 74.4668 93.8097 74.0791 96.7429 74.359C97.7514 74.4552 98.549 75.2522 98.6443 76.2619C99.1865 82.0047 97.1015 87.8289 92.9799 91.9081C92.7527 92.1328 92.4649 92.2841 92.1525 92.3444C91.8103 92.4103 90.8575 92.5906 89.7723 92.7555C90.1172 93.4599 89.9493 94.3842 89.1459 94.8557C86.5066 96.4046 82.9266 97.5113 79.3457 97.5113C78.7474 97.5113 78.2624 97.0263 78.2624 96.428C78.2624 95.8297 78.7474 95.3447 79.3457 95.3447C82.1157 95.3447 84.9121 94.5883 87.1282 93.485L86.0748 92.9614C85.6245 92.7375 85.3874 92.2332 85.5024 91.7436C85.6174 91.254 86.0542 90.908 86.5571 90.908C87.9466 90.908 90.6216 90.4291 91.575 90.2488C95.141 86.6476 96.9526 81.5428 96.4915 76.5116C93.9772 76.2784 91.4163 76.597 89.043 77.4502C88.7657 78.1371 88.2935 79.365 88.1765 79.9898C88.0967 80.416 87.7704 80.7536 87.3471 80.8478C86.9238 80.942 86.4851 80.7747 86.232 80.4226L85.4039 79.2703C81.5817 81.7584 78.8275 85.5108 77.9525 90.4588C79.0084 89.1964 80.1663 87.9954 81.3819 86.865C84.9238 83.5715 89.0191 80.8187 92.6878 78.8423C92.7848 78.7885 92.8871 78.7511 92.9913 78.7294C93.1509 78.696 93.3137 78.6998 93.468 78.7373C93.623 78.7749 93.77 78.8465 93.8969 78.9499C93.9901 79.0257 94.072 79.1183 94.1376 79.226C94.2038 79.3344 94.2488 79.4504 94.2734 79.5688C94.3068 79.7283 94.3029 79.8912 94.2655 80.0455C94.2031 80.3025 94.0473 80.5358 93.8147 80.6909C86.6713 85.5871 79.5454 91.8724 75.3012 99.1732C75.2541 99.2579 75.1966 99.3346 75.131 99.402C75.0173 99.5188 74.8806 99.6064 74.7324 99.6615C74.5837 99.7169 74.4224 99.7401 74.2594 99.7256C74.1389 99.715 74.0186 99.6841 73.9037 99.6314C73.7887 99.5789 73.6867 99.5082 73.5999 99.4238C73.4824 99.31 73.3944 99.1727 73.3391 99.024C73.2839 98.8757 73.2607 98.7149 73.275 98.5522C73.283 98.4584 73.3035 98.3648 73.337 98.2737C73.8668 96.7429 74.6015 95.2594 75.4901 93.8343C75.5213 86.2026 79.1986 80.5309 84.6961 77.1546C85.3705 76.7405 86.2121 76.8828 86.7262 77.4237C86.8935 76.9817 87.0472 76.6042 87.1316 76.3991C87.3009 75.9884 87.6329 75.6636 88.0528 75.5058Z" fill="#785600"/>
</g>
<path d="M77.25 34C81.9506 34 84 32.0223 84 27.25C84 32.0223 86.035 34 90.75 34C86.035 34 84 36.035 84 40.75C84 36.035 81.9506 34 77.25 34Z" fill="#FFB700" stroke="#FFB700" stroke-linejoin="round"/>
<defs>
<clipPath id="clip0_4_103">
<rect width="26" height="26" fill="white" transform="translate(73 74)"/>
</clipPath>
</defs>
</svg>
